<?xml version="1.0" encoding="utf-8"?>
<!-- Generator: Adobe Illustrator 22.0.1, SVG Export Plug-In . SVG Version: 6.00 Build 0)  -->
<svg version="1.1" id="pixprienceSVG" xmlns="http://www.w3.org/2000/svg"  viewBox="0 0 1366 162">

<g id="background_1_">
	<polygon class="st0" points="405.735,152.215 39,152.215 184.265,12 551,12 	"/>
</g>
<g id="pixprience" class="st1">
	<path class="t1" d="M118.813,38.483l32.707-0.01c16.746-0.006,28.262,8.897,28.267,24.454
		c0.005,15.808-11.374,25.096-29.167,25.102l-24.596,0.008l0.012,38.265l-7.195,0.002L118.813,38.483z M126.022,81.765l25.25-0.008
		c14.784-0.005,20.93-7.535,20.927-18.575c-0.004-11.793-8.118-18.439-20.416-18.436l-25.773,0.008L126.022,81.765z"/>
	<path class="t2" d="M259.191,38.439l0.028,87.82l-7.065,0.002l-0.028-87.82L259.191,38.439z"/>
	<path class="t3" d="M392.008,126.217l-27.618-39.511h-0.131l-27.331,39.528l-8.242,0.003l31.254-44.673l-29.974-43.147
		l8.242-0.003l26.178,37.503h0.131l26.677-37.52l8.242-0.003L368.575,81.06l31.806,45.155L392.008,126.217z"/>
	<path class="t4" d="M469.429,38.372l32.707-0.011c16.746-0.005,28.263,8.898,28.267,24.455
		c0.006,15.808-11.373,25.096-29.166,25.102l-24.596,0.008l0.012,38.265l-7.195,0.002L469.429,38.372z M476.639,81.653l25.25-0.009
		c14.783-0.004,20.93-7.534,20.926-18.574c-0.004-11.793-8.117-18.44-20.415-18.437l-25.773,0.009L476.639,81.653z"/>
	<path class="t5" d="M609.953,85.123l0.013,41.024l-7.195,0.003l-0.028-87.82l32.838-0.011
		c18.055-0.006,27.607,9.275,27.612,23.075c0.004,11.166-6.928,18.444-17.132,20.581c9.42,2.129,15.702,8.023,15.707,22.953
		l0.001,3.387c0.002,6.147-0.519,14.429,1.183,17.815l-7.195,0.002c-1.702-3.763-1.312-10.788-1.314-18.315v-2.259
		c-0.005-14.428-4.455-20.448-21.986-20.442L609.953,85.123z M609.951,78.85l22.109-0.007c16.092-0.005,23.548-5.778,23.545-17.32
		c-0.004-10.79-7.333-16.935-21.594-16.931L609.939,44.6L609.951,78.85z"/>
	<path class="t6" d="M746.389,38.284l0.027,87.82l-7.064,0.002l-0.027-87.82L746.389,38.284z"/>
	<path class="t7" d="M880.893,82.904l-46.706,0.015l0.012,36.885l51.154-0.016l-1.045,6.272l-57.172,0.019l-0.027-87.82
		l56.126-0.019l0.002,6.272l-49.062,0.016l0.01,32.117l46.706-0.015L880.893,82.904z"/>
	<path class="t8" d="M957.178,126.037l-0.027-87.82l10.466-0.003c14.268,21.072,47.775,70.115,53.535,79.648h0.131
		c-0.789-12.672-0.663-25.594-0.667-39.896l-0.013-39.77l7.195-0.002l0.027,87.82l-9.682,0.003
		c-13.611-20.319-47.644-71.37-54.188-81.028h-0.131c0.658,11.542,0.531,24.339,0.536,40.272l0.013,40.773L957.178,126.037z"/>
	<path class="t9" d="M1176.306,102.507c-4.313,13.927-15.037,24.47-34.399,24.476c-26.297,0.008-40.172-20.061-40.18-44.776
		c-0.008-23.711,13.592-45.294,40.281-45.303c19.755-0.007,31.402,10.529,34.416,25.206l-7.064,0.002
		c-4.19-11.415-11.912-18.939-27.742-18.935c-22.765,0.007-32.309,19.958-32.303,38.902c0.006,18.818,9.433,38.637,32.852,38.63
		c14.914-0.005,22.499-7.408,27.075-18.2L1176.306,102.507z"/>
	<path class="t10" d="M1303.593,82.77l-46.706,0.015l0.012,36.885l51.154-0.016l-1.045,6.272l-57.172,0.019l-0.027-87.82
		l56.126-0.019l0.002,6.272l-49.062,0.016l0.01,32.117l46.706-0.015L1303.593,82.77z"/>
</g>
</svg>


<svg xmlns="http://www.w3.org/2000/svg" viewBox="0 0 1366 162"><path class="st0" d="M405.735 152.215H39L184.265 12H551z"/><g class="st1"><path class="t1" d="M118.813 38.483l32.707-.01c16.746-.006 28.262 8.897 28.267 24.454.005 15.808-11.374 25.096-29.167 25.102l-24.596.008.012 38.265-7.195.002-.028-87.821zm7.209 43.282l25.25-.008c14.784-.005 20.93-7.535 20.927-18.575-.004-11.793-8.118-18.439-20.416-18.436l-25.773.008.012 37.011z"/><path class="t2" d="M259.191 38.439l.028 87.82-7.065.002-.028-87.82 7.065-.002z"/><path class="t3" d="M392.008 126.217L364.39 86.706h-.131l-27.331 39.528-8.242.003 31.254-44.673-29.974-43.147 8.242-.003 26.178 37.503h.131l26.677-37.52 8.242-.003-30.861 42.666 31.806 45.155-8.373.002z"/><path class="t4" d="M469.429 38.372l32.707-.011c16.746-.005 28.263 8.898 28.267 24.455.006 15.808-11.373 25.096-29.166 25.102l-24.596.008.012 38.265-7.195.002-.029-87.821zm7.21 43.281l25.25-.009c14.783-.004 20.93-7.534 20.926-18.574-.004-11.793-8.117-18.44-20.415-18.437l-25.773.009.012 37.011z"/><path class="t5" d="M609.953 85.123l.013 41.024-7.195.003-.028-87.82 32.838-.011c18.055-.006 27.607 9.275 27.612 23.075.004 11.166-6.928 18.444-17.132 20.581 9.42 2.129 15.702 8.023 15.707 22.953l.001 3.387c.002 6.147-.519 14.429 1.183 17.815l-7.195.002c-1.702-3.763-1.312-10.788-1.314-18.315v-2.259c-.005-14.428-4.455-20.448-21.986-20.442l-22.504.007zm-.002-6.273l22.109-.007c16.092-.005 23.548-5.778 23.545-17.32-.004-10.79-7.333-16.935-21.594-16.931l-24.072.008.012 34.25z"/><path class="t6" d="M746.389 38.284l.027 87.82-7.064.002-.027-87.82 7.064-.002z"/><path class="t7" d="M880.893 82.904l-46.706.015.012 36.885 51.154-.016-1.045 6.272-57.172.019-.027-87.82 56.126-.019.002 6.272-49.062.016.01 32.117 46.706-.015.002 6.274z"/><path class="t8" d="M957.178 126.037l-.027-87.82 10.466-.003c14.268 21.072 47.775 70.115 53.535 79.648h.131c-.789-12.672-.663-25.594-.667-39.896l-.013-39.77 7.195-.002.027 87.82-9.682.003c-13.611-20.319-47.644-71.37-54.188-81.028h-.131c.658 11.542.531 24.339.536 40.272l.013 40.773-7.195.003z"/><path class="t9" d="M1176.306 102.507c-4.313 13.927-15.037 24.47-34.399 24.476-26.297.008-40.172-20.061-40.18-44.776-.008-23.711 13.592-45.294 40.281-45.303 19.755-.007 31.402 10.529 34.416 25.206l-7.064.002c-4.19-11.415-11.912-18.939-27.742-18.935-22.765.007-32.309 19.958-32.303 38.902.006 18.818 9.433 38.637 32.852 38.63 14.914-.005 22.499-7.408 27.075-18.2l7.064-.002z"/><path class="t10" d="M1303.593 82.77l-46.706.015.012 36.885 51.154-.016-1.045 6.272-57.172.019-.027-87.82 56.126-.019.002 6.272-49.062.016.01 32.117 46.706-.015.002 6.274z"/></g></svg>
